<svg width="22" height="22" viewBox="0 0 22 22" fill="none" xmlns="http://www.w3.org/2000/svg">
  <path d="M3 11C3 11.2652 3.10536 11.5196 3.29289 11.7071C3.48043 11.8946 3.73478 12 4 12H11.59L9.29 14.29C9.19627 14.383 9.12188 14.4936 9.07111 14.6154C9.02034 14.7373 8.9942 14.868 8.9942 15C8.9942 15.132 9.02034 15.2627 9.07111 15.3846C9.12188 15.5064 9.19627 15.617 9.29 15.71C9.38296 15.8037 9.49356 15.8781 9.61542 15.9289C9.73728 15.9797 9.86799 16.0058 10 16.0058C10.132 16.0058 10.2627 15.9797 10.3846 15.9289C10.5064 15.8781 10.617 15.8037 10.71 15.71L14.71 11.71C14.801 11.6149 14.8724 11.5028 14.92 11.38C15.02 11.1365 15.02 10.8635 14.92 10.62C14.8724 10.4972 14.801 10.3851 14.71 10.29L10.71 6.29C10.6168 6.19676 10.5061 6.1228 10.3842 6.07234C10.2624 6.02188 10.1319 5.99591 10 5.99591C9.86814 5.99591 9.73757 6.02188 9.61575 6.07234C9.49393 6.1228 9.38324 6.19676 9.29 6.29C9.19676 6.38324 9.1228 6.49393 9.07234 6.61575C9.02188 6.73757 8.99591 6.86814 8.99591 7C8.99591 7.13186 9.02188 7.26243 9.07234 7.38425C9.1228 7.50607 9.19676 7.61676 9.29 7.71L11.59 10H4C3.73478 10 3.48043 10.1054 3.29289 10.2929C3.10536 10.4804 3 10.7348 3 11V11ZM16 1H6C5.20435 1 4.44129 1.31607 3.87868 1.87868C3.31607 2.44129 3 3.20435 3 4V7C3 7.26522 3.10536 7.51957 3.29289 7.70711C3.48043 7.89464 3.73478 8 4 8C4.26522 8 4.51957 7.89464 4.70711 7.70711C4.89464 7.51957 5 7.26522 5 7V4C5 3.73478 5.10536 3.48043 5.29289 3.29289C5.48043 3.10536 5.73478 3 6 3H16C16.2652 3 16.5196 3.10536 16.7071 3.29289C16.8946 3.48043 17 3.73478 17 4V18C17 18.2652 16.8946 18.5196 16.7071 18.7071C16.5196 18.8946 16.2652 19 16 19H6C5.73478 19 5.48043 18.8946 5.29289 18.7071C5.10536 18.5196 5 18.2652 5 18V15C5 14.7348 4.89464 14.4804 4.70711 14.2929C4.51957 14.1054 4.26522 14 4 14C3.73478 14 3.48043 14.1054 3.29289 14.2929C3.10536 14.4804 3 14.7348 3 15V18C3 18.7956 3.31607 19.5587 3.87868 20.1213C4.44129 20.6839 5.20435 21 6 21H16C16.7956 21 17.5587 20.6839 18.1213 20.1213C18.6839 19.5587 19 18.7956 19 18V4C19 3.20435 18.6839 2.44129 18.1213 1.87868C17.5587 1.31607 16.7956 1 16 1Z" fill="#DD4646"/>
</svg>
