<svg width="22" height="22" viewBox="0 0 22 22" fill="none" xmlns="http://www.w3.org/2000/svg">
  <path fill-rule="evenodd" clip-rule="evenodd" d="M11.7426 3.73558C11.2563 3.6039 10.7436 3.6039 10.2573 3.73558C9.74517 3.87424 9.25308 4.23716 7.90467 5.28593L5.52133 7.13963C4.65327 7.81479 4.34818 8.06116 4.13195 8.35351C3.92641 8.6314 3.7733 8.94447 3.68013 9.27733C3.58212 9.62749 3.57495 10.0196 3.57495 11.1193V17.1875C3.57495 17.8871 3.5839 18.0541 3.61837 18.1677C3.71612 18.49 3.96831 18.7421 4.29058 18.8399C4.40419 18.8744 4.57113 18.8833 5.27078 18.8833H5.8437C5.95989 18.8833 5.98813 18.8831 6.00776 18.8821C6.52574 18.8567 6.93995 18.4425 6.9654 17.9245C6.96636 17.9048 6.96662 17.8766 6.96662 17.7604V15.125C6.96662 12.8974 8.7724 11.0917 10.9999 11.0917C13.2275 11.0917 15.0333 12.8974 15.0333 15.125V17.7604C15.0333 17.8766 15.0335 17.9048 15.0345 17.9245C15.0599 18.4425 15.4742 18.8567 15.9921 18.8821C16.0118 18.8831 16.04 18.8833 16.1562 18.8833H16.7291C17.4288 18.8833 17.5957 18.8744 17.7093 18.8399C18.0316 18.7421 18.2838 18.49 18.3815 18.1677C18.416 18.0541 18.4249 17.8871 18.4249 17.1875V11.1193C18.4249 10.0196 18.4178 9.62749 18.3198 9.27733C18.2266 8.94447 18.0735 8.6314 17.8679 8.35351C17.6517 8.06116 17.3466 7.81479 16.4786 7.13963L14.0952 5.28593C12.7468 4.23716 12.2547 3.87424 11.7426 3.73558ZM9.82607 2.14292C10.5948 1.93478 11.4051 1.93478 12.1738 2.14292C13.0477 2.37953 13.8163 2.97783 14.9627 3.87021C15.0105 3.90746 15.059 3.94523 15.1082 3.9835L17.4916 5.8372C17.5223 5.86109 17.5526 5.88465 17.5825 5.9079C18.3263 6.4861 18.8267 6.87508 19.1945 7.37234C19.5194 7.8116 19.7614 8.30644 19.9087 8.83257C20.0754 9.42816 20.0752 10.062 20.075 11.0041C20.075 11.042 20.0749 11.0804 20.0749 11.1193V17.1875C20.0749 17.2246 20.075 17.2614 20.075 17.2976C20.0756 17.8274 20.076 18.2659 19.9605 18.6467C19.7028 19.4963 19.0379 20.1611 18.1883 20.4189C17.8075 20.5344 17.3691 20.5339 16.8393 20.5334C16.803 20.5334 16.7663 20.5333 16.7291 20.5333L16.1379 20.5333C16.0496 20.5333 15.977 20.5334 15.9112 20.5301C14.5456 20.463 13.4536 19.371 13.3865 18.0054C13.3833 17.9397 13.3833 17.867 13.3833 17.7788L13.3833 15.125C13.3833 13.8087 12.3162 12.7417 10.9999 12.7417C9.68367 12.7417 8.61662 13.8087 8.61662 15.125L8.61662 17.7788C8.61663 17.867 8.61664 17.9397 8.61341 18.0054C8.54633 19.371 7.45432 20.463 6.08872 20.5301C6.02294 20.5334 5.95027 20.5333 5.86203 20.5333L5.27078 20.5333C5.23363 20.5333 5.19691 20.5334 5.16062 20.5334C4.63084 20.5339 4.19239 20.5344 3.81161 20.4189C2.962 20.1611 2.29714 19.4963 2.03942 18.6467C1.92391 18.2659 1.92434 17.8274 1.92488 17.2976C1.92491 17.2614 1.92495 17.2246 1.92495 17.1875V11.1193C1.92495 11.0804 1.92494 11.042 1.92493 11.0041C1.92466 10.062 1.92449 9.42816 2.0912 8.83257C2.23847 8.30644 2.48049 7.8116 2.80538 7.37234C3.17316 6.87508 3.67357 6.4861 4.41739 5.9079C4.44731 5.88465 4.47762 5.86109 4.50833 5.8372L6.89166 3.9835C6.94087 3.94523 6.98938 3.90746 7.03723 3.87021C8.18361 2.97783 8.95222 2.37953 9.82607 2.14292Z" fill="#DADADA"/>
</svg>
