<svg width="22" height="22" viewBox="0 0 22 22" fill="none" xmlns="http://www.w3.org/2000/svg">
  <path fill-rule="evenodd" clip-rule="evenodd" d="M20.0932 9.71094C19.9619 10.5979 19.6585 11.4415 19.2113 12.2187C19.2481 12.4217 19.2669 12.627 19.2669 12.8334C19.2669 13.5268 19.066 14.1902 18.6941 14.7927C18.5154 15.0822 18.4668 15.4196 18.4476 15.6459C18.4257 15.9033 18.4309 16.1847 18.4479 16.4556C18.469 16.7911 18.5106 17.1462 18.5583 17.4782C18.1797 17.3674 17.7655 17.2554 17.3732 17.1684C17.0739 17.102 16.7684 17.046 16.4914 17.0187C16.2485 16.9947 15.9012 16.9776 15.5894 17.0784C14.8846 17.3063 14.1091 17.4334 13.2919 17.4334C12.3058 17.4334 11.4008 17.2556 10.6096 16.9473C10.4354 16.9547 10.26 16.9584 10.0836 16.9584C8.99005 16.9584 7.93719 16.8159 6.95117 16.5525C8.39453 18.2093 10.7637 19.2334 13.2919 19.2334C14.2837 19.2334 15.2354 19.081 16.1123 18.801C16.1138 18.8011 16.1164 18.801 16.1203 18.8009C16.1417 18.8004 16.2019 18.7989 16.3148 18.81C16.4916 18.8274 16.7194 18.8672 16.9836 18.9257C17.5098 19.0424 18.1051 19.2166 18.5829 19.367C19.6069 19.6893 20.6047 18.7981 20.4244 17.7541C20.3484 17.3137 20.2726 16.7915 20.2443 16.3427C20.2302 16.117 20.2296 15.9331 20.2411 15.7986C20.2458 15.7432 20.2516 15.7084 20.2553 15.6899C20.7705 14.8374 21.0669 13.8667 21.0669 12.8334C21.0669 11.6763 20.7094 10.6187 20.0932 9.71094Z" fill="#DADADA"/>
  <path d="M17.8752 8.70833C17.8752 11.999 14.3867 14.6667 10.0835 14.6667C8.93976 14.6667 7.85358 14.4782 6.87516 14.1397C6.26192 13.9275 4.19329 14.6537 2.90416 15.152C2.49567 15.3099 2.0729 14.9067 2.20883 14.4904C2.60302 13.2831 3.13424 11.4497 2.88898 11C2.50427 10.2945 2.29182 9.52041 2.29182 8.70833C2.29182 5.41764 5.78027 2.75 10.0835 2.75C14.3867 2.75 17.8752 5.41764 17.8752 8.70833Z" stroke="#DADADA" stroke-width="1.8"/>
</svg>
