<svg width="22" height="22" viewBox="0 0 22 22" fill="none" xmlns="http://www.w3.org/2000/svg">
  <path d="M9.08281 3.4113C9.49365 1.3054 12.5066 1.3054 12.9175 3.4113C13.1675 4.69277 14.58 5.37302 15.7378 4.7695C17.6404 3.7777 19.519 6.13334 18.1287 7.76755C17.2826 8.76199 17.6315 10.2905 18.8252 10.8194C20.7869 11.6885 20.1164 14.626 17.9719 14.5579C16.667 14.5165 15.6894 15.7422 16.0202 17.0053C16.5638 19.0809 13.8492 20.3882 12.5653 18.6691C11.784 17.623 10.2162 17.623 9.43498 18.6691C8.15111 20.3882 5.43651 19.0809 5.98008 17.0053C6.31084 15.7422 5.33333 14.5165 4.02836 14.5579C1.88384 14.626 1.21338 11.6885 3.17506 10.8194C4.36877 10.2905 4.71765 8.76199 3.87163 7.76755C2.48132 6.13334 4.35988 3.7777 6.26249 4.7695C7.42026 5.37302 8.83281 4.69277 9.08281 3.4113Z" stroke="#DADADA" stroke-width="1.8"/>
  <path d="M13.7501 11C13.7501 12.5188 12.5189 13.75 11.0001 13.75C9.48136 13.75 8.25014 12.5188 8.25014 11C8.25014 9.48122 9.48136 8.25 11.0001 8.25C12.5189 8.25 13.7501 9.48122 13.7501 11Z" stroke="#DADADA" stroke-width="1.8"/>
</svg>
