<svg width="19" height="32" viewBox="0 0 19 32" fill="none" xmlns="http://www.w3.org/2000/svg">
  <path d="M9.2174 16.5458C4.69735 16.5458 0.9405 12.7922 0.9405 8.3505C0.9405 3.75525 4.69735 0 9.219 0C13.8943 0 17.4959 3.75365 17.4959 8.3505C17.4879 10.5314 16.6142 12.6199 15.067 14.1569C13.5197 15.694 11.4255 16.5538 9.2446 16.5474L9.2174 16.5458V16.5458ZM9.2174 4.82726C7.30378 4.82726 5.84776 6.43528 5.84776 8.3521C5.84776 10.2657 7.30378 11.7217 9.219 11.7217C11.211 11.7217 12.5902 10.2657 12.5902 8.3521C12.5918 6.43368 11.211 4.82726 9.2174 4.82726ZM12.5134 23.3651L17.1903 27.8851C18.1103 28.8788 18.1103 30.3348 17.1903 31.2548C16.1951 32.2484 14.6607 32.2484 13.8943 31.2548L9.219 26.6579L4.69735 31.2548C4.23814 31.714 3.62373 31.9428 2.93252 31.9428C2.39652 31.9428 1.78371 31.7124 1.2461 31.2548C0.326092 30.3348 0.326092 28.8788 1.2461 27.8835L5.99816 23.3635C4.28203 22.8553 2.63578 22.1356 1.0973 21.2211C-0.053113 20.6083 -0.281915 19.077 0.330892 17.9266C1.0973 16.7778 2.47652 16.4722 3.70373 17.2386C5.36551 18.2527 7.27463 18.7893 9.2214 18.7893C11.1682 18.7893 13.0773 18.2527 14.7391 17.2386C15.9663 16.4722 17.4207 16.7778 18.1103 17.9266C18.8015 19.077 18.4927 20.6067 17.4191 21.2211C15.9647 22.1411 14.2783 22.8307 12.515 23.3667L12.5134 23.3651V23.3651Z" fill="white"/>
</svg>
