<svg width="33" height="19" viewBox="0 0 33 19" fill="none" xmlns="http://www.w3.org/2000/svg">
  <path fill-rule="evenodd" clip-rule="evenodd" d="M16.2004 17.9716H18.0581C18.0581 17.9716 18.6193 17.91 18.9058 17.6012C19.1694 17.3177 19.161 16.7852 19.161 16.7852C19.161 16.7852 19.1247 14.2925 20.2816 13.9254C21.4221 13.5639 22.8865 16.3346 24.4388 17.3999C25.6125 18.2062 26.5045 18.0294 26.5045 18.0294L30.6549 17.9716C30.6549 17.9716 32.8261 17.8379 31.7966 16.1308C31.7122 15.9911 31.197 14.868 28.7107 12.5601C26.1083 10.1446 26.4568 10.5353 29.5916 6.3571C31.5008 3.81251 32.2641 2.25902 32.0257 1.59365C31.7983 0.959934 30.3941 1.12743 30.3941 1.12743L25.721 1.15655C25.721 1.15655 25.3746 1.10929 25.1176 1.26287C24.8666 1.41349 24.705 1.76453 24.705 1.76453C24.705 1.76453 23.9654 3.73362 22.9789 5.4082C20.898 8.94176 20.066 9.12825 19.726 8.90885C18.9349 8.39749 19.1323 6.85454 19.1323 5.7584C19.1323 2.33412 19.6517 0.906351 18.121 0.536752C17.613 0.413974 17.2392 0.332966 15.9401 0.319887C14.2727 0.302588 12.8614 0.324949 12.0623 0.716488C11.5306 0.976811 11.1205 1.55695 11.3703 1.59028C11.6792 1.63163 12.3787 1.77888 12.7496 2.28391C13.2284 2.93535 13.2116 4.39856 13.2116 4.39856C13.2116 4.39856 13.4866 8.42955 12.569 8.93037C11.9391 9.27381 11.075 8.57258 9.2198 5.36686C8.26922 3.72476 7.55154 1.90967 7.55154 1.90967C7.55154 1.90967 7.41315 1.57045 7.16633 1.38902C6.86677 1.1692 6.44823 1.09917 6.44823 1.09917L2.00755 1.12828C2.00755 1.12828 1.34092 1.14684 1.09621 1.4367C0.878499 1.69449 1.07891 2.2278 1.07891 2.2278C1.07891 2.2278 4.55551 10.3615 8.49199 14.4604C12.1015 18.2184 16.2004 17.9716 16.2004 17.9716Z" fill="#EFF2F7"/>
</svg>
