<svg width="28" height="28" viewBox="0 0 28 28" fill="none" xmlns="http://www.w3.org/2000/svg">
<path fill-rule="evenodd" clip-rule="evenodd" d="M14.565 24.0674C16.414 22.5949 22.1667 17.5417 22.1667 11.6667C22.1667 7.15634 18.5103 3.5 14 3.5C9.48967 3.5 5.83333 7.15634 5.83333 11.6667C5.83333 17.5417 11.586 22.5949 13.435 24.0674C13.7693 24.3336 14.2307 24.3336 14.565 24.0674ZM14 15.1667C15.933 15.1667 17.5 13.5997 17.5 11.6667C17.5 9.73367 15.933 8.16667 14 8.16667C12.067 8.16667 10.5 9.73367 10.5 11.6667C10.5 13.5997 12.067 15.1667 14 15.1667Z" fill="#F2994A"/>
</svg>
